<svg width="27" height="27" viewBox="0 0 27 27" fill="none" xmlns="http://www.w3.org/2000/svg">
<path d="M21.1043 26.97H21.1034C15.8925 26.9698 9.98225 21.633 7.68326 19.3386C5.16808 16.8288 -0.60971 10.4076 0.0524668 4.9995C0.301503 2.96624 1.43134 1.33276 3.41059 0.144223C3.56982 0.0485939 3.75189 0 3.95165 0C5.50854 0 8.57869 3.63406 9.82181 5.39361C11.5982 7.90903 11.3465 8.61896 11.2517 8.88612C10.9505 9.73491 10.3904 10.23 9.89611 10.6663C9.46366 11.0484 9.09032 11.378 8.89998 11.9146C8.87355 12.0449 9.04644 12.7486 10.1745 14.1353C11.9473 16.3143 14.2833 18.0687 15.0355 18.0687C15.5907 17.8786 15.921 17.5052 16.3027 17.0728C16.7394 16.5788 17.2341 16.0187 18.0833 15.7172C18.2027 15.6749 18.335 15.6534 18.4763 15.6534C20.2662 15.6534 25.4438 19.8997 26.6592 22.0447C26.788 22.2722 27.1804 22.9651 26.8252 23.5575C25.4683 25.8221 23.5432 26.9698 21.1048 26.9698L21.1043 26.97ZM3.99604 1.29131C2.39838 2.27288 1.52517 3.53778 1.32698 5.15555C0.915133 8.51792 3.63032 13.4806 8.58971 18.4295C10.7762 20.611 16.3713 25.6853 21.1034 25.6859H21.1041C23.0617 25.6859 24.559 24.7975 25.6787 22.971C25.4669 21.7018 19.8309 16.9586 18.4848 16.9386C17.9652 17.1318 17.6401 17.4993 17.2652 17.924C16.8283 18.4185 16.3331 18.9786 15.4837 19.2802C15.3462 19.329 15.1957 19.3537 15.0355 19.3537C13.3342 19.3537 10.0878 16.2941 8.6001 14.1874C7.76278 13.002 7.46489 12.1185 7.68951 11.4856C7.99072 10.6362 8.55126 10.141 9.04528 9.70434C9.47034 9.329 9.83829 9.00335 10.0313 8.48313C10.0385 8.02045 8.99104 6.165 7.03599 3.94811C5.43048 2.12738 4.35283 1.37175 3.99628 1.29161L3.99604 1.29131Z" fill="#80298F"/>
</svg>