<svg width="26" height="17" viewBox="0 0 26 17" fill="none" xmlns="http://www.w3.org/2000/svg">
<path d="M0.928623 0C0.419519 0 0 0.419502 0 0.928623V15.7857C0 16.2948 0.419503 16.7143 0.928623 16.7143H25.0714C25.5805 16.7143 26 16.2948 26 15.7857V0.928623C26 0.419519 25.5805 0 25.0714 0H0.928623ZM1.08343 0.618989H24.9167L13.7451 10.6011C13.3541 10.9506 12.6466 10.9506 12.2556 10.6011L1.08348 0.618989H1.08343ZM0.619017 1.02533L9.14083 8.63737L0.619017 15.6884V1.02533ZM25.3808 1.02533V15.689L16.859 8.63737L25.3808 1.02533ZM9.60457 9.05357L11.839 11.0559C12.4854 11.6334 13.514 11.6334 14.1604 11.0559L16.3948 9.05357L24.9067 16.0952H1.09281L9.60457 9.05357Z" fill="#80298F"/>
</svg>